<svg width="176" height="80" viewBox="0 0 176 80" fill="none" xmlns="http://www.w3.org/2000/svg">
<path d="M66.372 79.9527V78.3009H67.3318C70.1126 78.3009 72.9014 78.3055 75.6891 78.2962C78.2779 78.2859 79.9815 76.5683 79.9896 73.9585C80.0011 71.23 79.9896 68.4957 79.9896 65.6207C80.5908 65.7729 81.1023 65.9055 81.6001 66.0288C81.6001 69.0617 81.7886 72.0415 81.5438 74.9844C81.3104 77.7983 79.1998 79.7775 76.4145 79.9147C75.1074 79.9804 73.7981 80 72.4841 80C70.4552 80 68.4216 79.9527 66.3708 79.9527H66.372ZM97.8203 79.9527C94.7395 79.8721 92.4208 77.4997 92.3346 74.415C92.2679 71.9758 92.3346 69.532 92.3013 67.087C92.2875 65.9008 93.2485 66.37 93.8831 66.0196C93.9061 66.4277 93.9394 66.732 93.9394 67.0398C93.9428 69.2795 93.929 71.5147 93.9428 73.7545C93.9624 76.664 95.5993 78.2963 98.4824 78.3009H107.554V79.9712C105.551 79.9712 103.57 79.9954 101.605 79.9954C100.339 79.9954 99.0779 79.985 97.8203 79.9516V79.9527ZM105.368 60.1441C105.619 59.9112 105.997 59.57 106.309 59.2807C111.391 64.3781 116.391 69.389 121.369 74.3862C121.094 74.6709 120.76 75.0271 120.488 75.3072C115.462 70.2663 110.452 65.2403 105.367 60.1441H105.368ZM52.652 72.596C57.5675 67.6599 62.6049 62.6063 67.6675 57.5285C67.8859 57.7798 68.2296 58.1694 68.5101 58.483C63.4647 63.547 58.4504 68.5752 53.4659 73.5689C53.1958 73.2461 52.8774 72.8715 52.652 72.596ZM126.087 60.4749C126.106 57.7648 126.108 55.0582 126.092 52.355C126.073 49.3129 124.493 47.7521 121.455 47.7371C119.158 47.7268 116.868 47.7325 114.574 47.7325H113.475C113.625 46.0899 113.625 46.0853 115.07 46.0853C117.242 46.0853 119.424 46.1614 121.598 46.0714C125.292 45.9147 127.897 48.8242 127.76 52.2225C127.641 54.9798 127.727 57.751 127.741 60.5176C127.741 61.0824 127.744 61.5193 126.948 61.5193H126.932C126.128 61.5193 126.084 61.0928 126.089 60.4749H126.087ZM47.9423 59.6818C47.9228 59.3925 47.8918 59.0836 47.886 58.7758C47.886 55.985 47.8699 53.1908 47.8918 50.3954C47.909 46.7596 50.2748 44.4057 53.897 44.3965C55.9547 44.3919 58.0124 44.3965 60.0713 44.3965C61.1189 44.3965 61.6684 44.9564 61.7197 46.076H53.9809C51.1703 46.0807 49.5609 47.6657 49.5276 50.5037C49.4977 53.1516 49.5218 55.8006 49.5218 58.4484C49.5195 59.4916 49.5195 59.7729 48.9022 59.7729C48.5803 59.7602 48.2596 59.7302 47.9423 59.683V59.6818ZM114.435 35.5873C114.337 35.5734 114.242 35.5527 114.146 35.525C114.043 35.0547 113.932 34.5337 113.796 33.9158C116.111 33.9158 118.339 33.9296 120.569 33.9054C121.433 33.8951 122.323 33.9239 123.158 33.7302C124.781 33.3406 125.962 31.97 126.015 30.2939C126.115 27.3844 126.079 24.476 126.096 21.5665C126.102 20.1337 126.096 20.1337 127.678 20.2939C127.695 20.6213 127.728 20.906 127.728 21.1861C127.734 23.9815 127.742 26.7769 127.728 29.5665C127.711 33.2541 125.346 35.5896 121.656 35.5942C119.251 35.5942 116.844 35.5919 114.434 35.585L114.435 35.5873ZM47.8619 27.8282C47.9699 25.0097 47.8986 22.1809 47.8699 19.3567C47.8676 18.7308 48.0366 18.4737 48.7045 18.4783C49.377 18.4783 49.5322 18.7584 49.5322 19.3752C49.5092 22.1083 49.5149 24.8472 49.5218 27.5804C49.5322 30.6789 51.1002 32.2455 54.1948 32.2547C56.4847 32.2651 58.7757 32.2547 61.0702 32.2547H62.1577C62.0121 33.3529 61.4653 33.902 60.5173 33.902C59.7781 33.902 59.0436 33.8974 58.3067 33.8881C56.8387 33.8778 55.3685 33.8639 53.9005 33.917C53.8258 33.9193 53.7522 33.9204 53.6786 33.9204C50.3208 33.9204 47.7354 31.1896 47.8619 27.8282ZM107.081 21.4835C112.122 16.4288 117.133 11.4051 122.113 6.41145C122.43 6.73883 122.789 7.10886 123.097 7.42701C118.114 12.4241 113.09 17.4628 108.025 22.5417C107.731 22.2097 107.386 21.8247 107.082 21.4835H107.081ZM54.3488 5.60914C54.5798 5.36246 54.9374 4.99243 55.2156 4.69848C60.2138 9.70944 65.2362 14.7481 70.2839 19.8132C69.9885 20.0933 69.6275 20.4207 69.3631 20.6674C64.3223 15.608 59.3183 10.589 54.3499 5.60914H54.3488ZM95.0269 14.2466C94.1429 14.1613 93.89 13.7094 93.9198 12.8034C94.0061 10.5394 93.9394 8.26621 93.9532 5.99301C93.967 2.52903 96.4052 0.0471788 99.8596 0.0183603C102.965 -0.0104582 106.068 0.0137494 109.234 0.0137494V1.69329H100.14C97.2628 1.6979 95.6304 3.34978 95.6246 6.25814V14.3492C95.3131 14.2973 95.1694 14.2593 95.0292 14.2455L95.0269 14.2466ZM81.676 12.861C81.676 10.6489 81.6898 8.43797 81.6725 6.22701C81.653 3.3175 80.016 1.69905 77.1191 1.6956H68.0032V0.0114439H68.8458C71.6289 0.0114439 74.4154 0.0540952 77.1996 0.00106923C80.7552 -0.0611787 83.4463 2.60165 83.321 6.11866C83.2485 8.14978 83.3233 10.1901 83.3049 12.2259C83.2853 13.6783 83.6521 13.6541 81.676 13.8777V12.8622V12.861Z" fill="url(#paint0_radial_826_2033)"/>
<path d="M41.398 57.5686V45.7426L41.3485 43.4879H41.4738L42.5487 45.7426L48.1205 56.5669H50.2691L55.8409 45.7426L56.8905 43.4879H57.0399L56.9905 45.7426V57.5686H58.7643V40.7812H56.3146L50.7174 51.73L49.2678 54.8366H49.1425L47.6688 51.73L42.0463 40.7812H39.623V57.5686H41.3968H41.398ZM65.1604 57.8187C68.0342 57.8187 70.208 56.5161 70.9323 54.236H71.0576V57.5686H72.6566V49.8268C72.6566 47.096 71.0576 44.9415 67.31 44.9415C63.5625 44.9415 61.3634 47.0717 61.3634 49.6769V49.7772H63.1372V49.6769C63.1372 47.4971 64.5362 46.5449 67.1847 46.5449C69.8333 46.5449 70.9323 47.4971 70.9323 49.9029V50.855L65.0604 51.5063C62.7612 51.7565 61.0875 52.6337 61.0875 54.6637C61.0875 56.6937 62.7371 57.821 65.1604 57.821V57.8187ZM62.8613 54.5369C62.8613 53.2585 63.7602 52.8078 65.6098 52.6326L70.9323 52.0308V52.1311C70.9323 55.1121 68.5584 56.4401 65.5604 56.4401C63.6866 56.4401 62.8613 55.7888 62.8613 54.5357V54.5369ZM81.0012 57.8187C84.1993 57.8187 86.4984 56.5911 86.4984 54.2614C86.4984 52.2568 85.0741 51.3553 82.4255 50.9795L79.4022 50.553C77.3537 50.2522 76.7042 49.8014 76.7042 48.523C76.7042 47.0452 77.779 46.4181 80.377 46.4181C83.5256 46.4181 84.4993 47.4199 84.4993 49.2746V49.4003H86.2731V49.3507C86.2731 46.4447 83.9739 44.9415 80.4264 44.9415C76.8789 44.9415 74.9545 46.319 74.9545 48.4988C74.9545 50.553 76.3789 51.4303 78.6274 51.7311L81.9254 52.2072C83.9739 52.5334 84.7487 52.9588 84.7487 54.2614C84.7487 55.6896 83.7992 56.3409 81.0253 56.3409C78.002 56.3409 76.7777 55.6147 76.7777 53.5352V53.3841H75.004V53.4337C75.004 56.2902 77.2019 57.8187 81.0001 57.8187H81.0012ZM96.3926 57.5686V55.9398H94.144C92.345 55.9398 91.4955 55.4637 91.4955 53.7346V46.719H96.3926V45.1905H91.4955V42.2337H89.6964V45.1905H87.4973V46.719H89.6964V53.6343C89.6964 56.5403 91.2701 57.5686 93.7187 57.5686H96.3926ZM104.213 57.8187C107.662 57.8187 110.21 56.0401 110.21 53.4591V53.2839H108.436V53.4591C108.436 55.2631 107.087 56.3409 104.189 56.3409C100.916 56.3409 99.4906 54.6625 99.3918 51.881H110.261C110.346 51.5029 110.388 51.1156 110.386 50.7282C110.386 47.0452 107.812 44.9403 104.19 44.9403C100.217 44.9403 97.718 47.6216 97.718 51.3795C97.718 55.3138 100.242 57.8187 104.214 57.8187H104.213ZM104.164 46.4181C107.062 46.4181 108.711 47.7957 108.711 50.402V50.7778H99.3906C99.5159 48.0712 100.964 46.4181 104.164 46.4181ZM114.507 57.5674V50.8527C114.507 48.0712 115.606 46.4931 118.105 46.4931C120.255 46.4931 121.129 47.5202 121.129 49.6251V50.5772H122.902V49.3496C122.902 47.0441 121.653 44.9403 118.804 44.9403C116.23 44.9403 114.831 46.5945 114.457 48.5738H114.331V45.1916H112.732V57.5686H114.506L114.507 57.5674ZM130.373 57.8176C133.571 57.8176 135.871 56.5899 135.871 54.2602C135.871 52.2556 134.446 51.3542 131.798 50.9784L128.774 50.5519C126.726 50.251 126.076 49.8003 126.076 48.5219C126.076 47.0441 127.151 46.417 129.749 46.417C132.898 46.417 133.871 47.4187 133.871 49.2735V49.3991H135.645V49.3496C135.645 46.4435 133.346 44.9392 129.797 44.9392C126.249 44.9392 124.326 46.3167 124.326 48.4965C124.326 50.5507 125.75 51.4279 127.998 51.7288L131.296 52.2049C133.345 52.5311 134.12 52.9565 134.12 54.2591C134.12 55.6873 133.17 56.3386 130.396 56.3386C127.373 56.3386 126.149 55.6124 126.149 53.5329V53.383H124.375V53.4326C124.375 56.2891 126.573 57.8176 130.371 57.8176H130.373Z" fill="white"/>
<path d="M0 36.3647V19.2051H8.2492C13.7406 19.2051 17.2146 22.4062 17.2146 27.7849C17.2146 33.1636 13.7406 36.3647 8.2492 36.3647H0ZM3.83146 22.6621V32.9065H8.25034C11.7243 32.9065 13.129 31.9071 13.129 27.7838C13.129 23.6604 11.7243 22.661 8.25034 22.661H3.83146V22.6621Z" fill="white"/>
<path d="M18.4902 29.9611C18.4902 25.8631 21.3768 23.2764 25.591 23.2764C29.8053 23.2764 32.5642 25.4793 32.5642 29.5C32.5642 29.9611 32.5136 30.2942 32.4619 30.7288H22.0412C22.1435 32.7012 23.0631 33.5461 25.5404 33.5461C27.8131 33.5461 28.6051 32.9571 28.6051 31.8562V31.6003H32.4366V31.8816C32.4366 34.6735 29.7294 36.6193 25.668 36.6193C21.4032 36.6193 18.4914 34.519 18.4914 29.9599L18.4902 29.9611ZM22.0918 28.7058H28.8856C28.7833 27.0159 27.7614 26.2723 25.514 26.2723C23.2666 26.2723 22.27 27.0412 22.0918 28.7058Z" fill="white"/>
<path d="M33.8145 29.9611C33.8145 25.8631 36.624 23.2764 41.0176 23.2764C45.1295 23.2764 47.939 25.4793 47.939 28.8084V29.1669H44.1328V28.9617C44.1328 27.3225 42.9327 26.7334 40.9405 26.7334C38.6679 26.7334 37.6206 27.5784 37.6206 29.9611C37.6206 32.3438 38.6679 33.1623 40.9405 33.1623C42.9327 33.1623 44.1328 32.5732 44.1328 30.934V30.7288H47.939V31.0873C47.939 34.3911 45.1295 36.6193 41.0176 36.6193C36.6251 36.6193 33.8145 34.0072 33.8145 29.9599V29.9611Z" fill="white"/>
<path d="M49.2148 29.9611C49.2148 25.8631 52.1014 23.2764 56.3156 23.2764C60.5299 23.2764 63.2888 25.4793 63.2888 29.5C63.2888 29.9611 63.2382 30.2942 63.1865 30.7288H52.7658C52.8681 32.7012 53.7878 33.5461 56.265 33.5461C58.5377 33.5461 59.3298 32.9571 59.3298 31.8562V31.6003H63.1612V31.8816C63.1612 34.6735 60.454 36.6193 56.3926 36.6193C52.1278 36.6193 49.216 34.519 49.216 29.9599L49.2148 29.9611ZM52.8164 28.7058H59.6102C59.5079 27.0159 58.486 26.2723 56.2386 26.2723C53.9912 26.2723 52.9946 27.0412 52.8164 28.7058Z" fill="white"/>
<path d="M64.9238 36.3644V23.5333H68.4736V27.4779H68.7036C69.0358 25.3269 70.5681 23.2773 73.9145 23.2773C77.2608 23.2773 79.0737 25.5309 79.0737 28.3736V36.3644H75.2422V29.6543C75.2422 27.6059 74.3996 26.7344 72.0499 26.7344C69.7002 26.7344 68.7553 27.7073 68.7553 29.8848V36.3644H64.9238Z" fill="white"/>
<path d="M86.8641 36.3643C83.8752 36.3643 82.0624 34.9556 82.0624 31.728V26.7078H80.0449V23.532H82.0624V21.0479H85.8938V23.532H90.0311V26.7078H85.8938V31.2922C85.8938 32.5729 86.379 32.9061 87.7331 32.9061H90.0322V36.3631H86.8652L86.8641 36.3643Z" fill="white"/>
<path d="M91.4601 36.3644V23.5333H95.01V26.9396H95.2399C95.5974 24.8647 96.9515 23.2773 99.5311 23.2773C102.391 23.2773 103.566 25.2497 103.566 27.7592V29.8848H99.7346V28.5534C99.7346 27.1448 99.1725 26.5304 97.6148 26.5304C95.9031 26.5304 95.2904 27.3246 95.2904 28.9384V36.3655H91.459L91.4601 36.3644Z" fill="white"/>
<path d="M104.46 33.1878C104.46 31.2927 105.865 30.1146 108.597 29.8322L114.089 29.2685V28.782C114.089 27.1175 113.348 26.6564 111.305 26.6564C109.261 26.6564 108.572 27.1682 108.572 28.6287V28.7313H104.715V28.6541C104.715 25.4783 107.372 23.2754 111.586 23.2754C115.8 23.2754 117.87 25.4783 117.87 28.8327V36.3624H114.293V33.4172H114.089C113.501 35.4149 111.714 36.6183 108.878 36.6183C106.042 36.6183 104.459 35.3377 104.459 33.1866L104.46 33.1878ZM109.977 33.9048C112.582 33.9048 113.986 33.2904 114.089 31.4714L109.645 31.9832C108.725 32.0604 108.317 32.3163 108.317 32.9307C108.317 33.6224 108.854 33.9036 109.977 33.9036V33.9048Z" fill="white"/>
<path d="M119.811 36.3647V19.2051H123.642V36.3647H119.811Z" fill="white"/>
<path d="M125.658 22.2256V19.2031H129.49V22.2256H125.658ZM125.658 36.364V23.5328H129.49V36.364H125.658Z" fill="white"/>
<path d="M130.971 36.3643V33.086L136.462 28.7067L139.144 27.0168V26.7609L136.462 26.9142H131.354V23.5332H144.176V26.837L138.25 31.4214L135.823 32.9326V33.1885L138.25 33.0087H144.558V36.3643H130.971Z" fill="white"/>
<path d="M145.684 29.9611C145.684 25.8631 148.57 23.2764 152.784 23.2764C156.999 23.2764 159.758 25.4793 159.758 29.5C159.758 29.9611 159.707 30.2942 159.655 30.7288H149.235C149.337 32.7012 150.257 33.5461 152.734 33.5461C155.006 33.5461 155.799 32.9571 155.799 31.8562V31.6003H159.63V31.8816C159.63 34.6735 156.923 36.6193 152.861 36.6193C148.597 36.6193 145.685 34.519 145.685 29.9599L145.684 29.9611ZM149.285 28.7058H156.079C155.977 27.0159 154.955 26.2723 152.707 26.2723C150.46 26.2723 149.463 27.0412 149.285 28.7058Z" fill="white"/>
<path d="M160.931 29.9605C160.931 25.8625 163.102 23.2758 166.907 23.2758C169.947 23.2758 171.504 24.787 171.939 26.938H172.169V19.2031H176V36.3628H172.424V32.8031H172.219C171.734 35.3392 170.048 36.6187 167.111 36.6187C163.126 36.6187 160.93 34.0066 160.93 29.9593L160.931 29.9605ZM168.414 33.1109C170.841 33.1109 172.169 32.266 172.169 30.0377V29.8325C172.169 27.6043 170.866 26.7847 168.414 26.7847C165.962 26.7847 164.813 27.6043 164.813 29.9605C164.813 32.3167 165.962 33.1109 168.414 33.1109Z" fill="white"/>
<defs>
<radialGradient id="paint0_radial_826_2033" cx="0" cy="0" r="1" gradientUnits="userSpaceOnUse" gradientTransform="translate(87.7868 39.2606) scale(43.5614 43.6128)">
<stop stop-color="white" stop-opacity="0"/>
<stop offset="0.67" stop-color="#167EF7" stop-opacity="0"/>
<stop offset="0.83" stop-color="#167EF7" stop-opacity="0.5"/>
<stop offset="1" stop-color="#167EF7"/>
</radialGradient>
</defs>
</svg>
